PathFileType	4	(X/Y/Z)	Kaydara	
DataRate	CameraRate	NumFrames	NumMarkers	Units	OrigDataRate	OrigDataStartFrame	OrigNumFrames	
240.00	240.00	4	72	mm	240.00	222	355	
Frame#	Time	Hips			RightUpLeg			RightLeg			RightFoot			RightFoot_End			LeftUpLeg			LeftLeg			LeftFoot			LeftFoot_End			Spine			Spine1			Spine2			Spine3			Neck			Head			Head_End			RightShoulder			RightArm			RightForeArm			RightHand			RightHandThumb1			RightHandThumb2			RightHandThumb3			RightHandThumb3_End			RightInHandIndex			RightHandIndex1			RightHandIndex2			RightHandIndex3			RightHandIndex3_End			RightInHandMiddle			RightHandMiddle1			RightHandMiddle2			RightHandMiddle3			RightHandMiddle3_End			RightInHandRing			RightHandRing1			RightHandRing2			RightHandRing3			RightHandRing3_End			RightInHandPinky			RightHandPinky1			RightHandPinky2			RightHandPinky3			RightHandPinky3_End			LeftShoulder			LeftArm			LeftForeArm			LeftHand			LeftHandThumb1			LeftHandThumb2			LeftHandThumb3			LeftHandThumb3_End			LeftInHandIndex			LeftHandIndex1			LeftHandIndex2			LeftHandIndex3			LeftHandIndex3_End			LeftInHandMiddle			LeftHandMiddle1			LeftHandMiddle2			LeftHandMiddle3			LeftHandMiddle3_End			LeftInHandRing			LeftHandRing1			LeftHandRing2			LeftHandRing3			LeftHandRing3_End			LeftInHandPinky			LeftHandPinky1			LeftHandPinky2			LeftHandPinky3			LeftHandPinky3_End			
		X1	Y1	Z1	X2	Y2	Z2	X3	Y3	Z3	X4	Y4	Z4	X5	Y5	Z5	X6	Y6	Z6	X7	Y7	Z7	X8	Y8	Z8	X9	Y9	Z9	X10	Y10	Z10	X11	Y11	Z11	X12	Y12	Z12	X13	Y13	Z13	X14	Y14	Z14	X15	Y15	Z15	X16	Y16	Z16	X17	Y17	Z17	X18	Y18	Z18	X19	Y19	Z19	X20	Y20	Z20	X21	Y21	Z21	X22	Y22	Z22	X23	Y23	Z23	X24	Y24	Z24	X25	Y25	Z25	X26	Y26	Z26	X27	Y27	Z27	X28	Y28	Z28	X29	Y29	Z29	X30	Y30	Z30	X31	Y31	Z31	X32	Y32	Z32	X33	Y33	Z33	X34	Y34	Z34	X35	Y35	Z35	X36	Y36	Z36	X37	Y37	Z37	X38	Y38	Z38	X39	Y39	Z39	X40	Y40	Z40	X41	Y41	Z41	X42	Y42	Z42	X43	Y43	Z43	X44	Y44	Z44	X45	Y45	Z45	X46	Y46	Z46	X47	Y47	Z47	X48	Y48	Z48	X49	Y49	Z49	X50	Y50	Z50	X51	Y51	Z51	X52	Y52	Z52	X53	Y53	Z53	X54	Y54	Z54	X55	Y55	Z55	X56	Y56	Z56	X57	Y57	Z57	X58	Y58	Z58	X59	Y59	Z59	X60	Y60	Z60	X61	Y61	Z61	X62	Y62	Z62	X63	Y63	Z63	X64	Y64	Z64	X65	Y65	Z65	X66	Y66	Z66	X67	Y67	Z67	X68	Y68	Z68	X69	Y69	Z69	X70	Y70	Z70	X71	Y71	Z71	X72	Y72	Z72	

222	0.921	921.0129	906.651	56.2195	953.3439160530431	872.6990254744027	-11.4166465507108	879.8075902838294	466.0399517645553	-74.40291506758525	940.2106962335771	100.50997271646878	-179.3905085414687	866.7057765630473	21.576622462384044	-21.62331608738612	895.7784673304667	911.7572118013508	135.68125869528293	840.4551307991592	510.20475847860087	240.34097254065972	768.1384483225798	79.6950711951888	292.8871768148083	644.7122471015165	-5.211304475830371	174.77353955521457	888.0043422604801	1036.0453352939405	5.3102941830771355	839.3482062123355	1107.3044143676884	-38.79097727048729	783.1074202493438	1176.3288628651705	-85.72810858991294	721.2757884824022	1233.5029103895836	-132.22680976410157	654.5694466773705	1294.3702894158448	-181.2390428333268	592.9476560768114	1349.8619499646109	-224.75845154282428	469.95045405440897	1441.720974823639	-265.7570270787963	685.136630911371	1265.7335846667636	-185.64222642639874	701.2692530333898	1233.9830162806297	-264.6014515490568	705.6034578813312	1037.9591818105368	-196.3147518263679	700.4323376104966	928.8257450983322	-221.03366259471048	708.5480252633172	938.2066319240901	-234.87307005426482	704.1048831772137	935.7459796485352	-242.00715663142947	700.3317282786429	931.2449179133102	-245.53480436672703	696.6053845427998	925.1079661016383	-247.2433095029333	708.0506230767951	929.4590621822373	-231.4017086653143	712.013002410686	918.4243602456169	-240.07273932745284	708.404065400716	908.693716384852	-243.84841116013325	702.9114861256464	904.6449597459997	-245.45664371312643	696.1737903357994	902.6433950944503	-246.2892279116162	705.7634637014712	922.1641564812461	-227.07453511628057	708.3929411325307	907.4560036530885	-233.19207511958248	704.1322843753019	895.9086197051872	-236.71017425838423	697.3508804162121	890.5779959573086	-238.36160529442088	689.9033562368625	888.1711328057504	-239.13218812345897	704.1074620342986	917.2923033076942	-223.81135790262738	705.2049302353253	899.8829517433954	-226.50581116757525	701.1567905051504	888.891528361057	-228.9471792106206	694.4379169376753	883.2576069384035	-230.20819169282817	687.3511720866849	880.7613463003211	-230.77543947425636	701.6035546044486	911.9936562045328	-219.67909237445832	701.2724380712178	892.7571349102516	-219.65684644150772	697.5036825815989	882.5857970261142	-220.62483829879946	692.3479067418393	877.8137663267551	-221.06719741805088	685.9234472070141	875.2211445552126	-221.29492049388995	668.440139321156	1283.430399326886	-143.26012140281935	655.7076600820342	1276.758566740547	-53.68898586506927	720.7501106786267	1077.2915527255377	-114.8879991257086	737.4837416658145	925.2180167926624	-154.98933325142013	727.1176143983737	934.4676214291551	-165.53873644132008	724.6505918809657	924.7389935401317	-178.7071640004503	723.8941030254725	914.9118162209318	-187.3383286513137	724.0860308095853	904.1082873502949	-194.07237894424904	728.9596424767377	925.3933041217506	-164.30381919677987	722.3304981345491	909.9301707323344	-177.70585444852696	721.209498522063	893.7305229720308	-188.4716662904992	722.1605902844796	884.3599592835269	-195.3541923282192	724.0594550549348	877.076622824526	-201.1786319293979	731.9716237966134	917.3716158015097	-162.43887242927093	727.1339369794082	897.951958857833	-174.50165512793058	726.3339884598252	879.2598390115191	-185.9615467890667	727.6845774984246	867.4674922605287	-194.1269801864172	729.8610278729336	859.2614085881504	-200.4328461717469	734.2382554907687	912.1310860423757	-160.76381688716643	731.7811121511069	890.2722335157929	-170.07513554408243	731.5244801492881	872.9728448618367	-179.75067073728133	733.0612201011487	861.0632786823516	-187.46068655890554	735.2185150668529	853.0940076670422	-193.31103209299684	737.282946347601	906.2854358335896	-158.5668425905192	736.8018447108391	882.7358522145475	-165.70511221407995	737.2946752527865	867.406778625119	-172.9241975558722	738.7533919749004	858.0057261519909	-178.29215305587618	740.8588177765077	850.5352329872153	-183.3274137165537
223	0.925	921.0129	906.651	56.2195	952.8776561833002	872.5083697559055	-11.55625287627088	879.4237815077134	465.79865234967485	-74.31182992607647	940.4317284059418	100.41850105710029	-179.53983236053006	866.9517536698957	21.49693645370527	-21.755287473252697	896.2288804606864	911.94474576002	135.82332487565571	840.9689428609213	510.419387193702	240.6178871937685	768.3497296968519	79.92164357182726	292.91445792522313	645.0126698916522	-5.078923041374442	174.77567768549	888.0870605150076	1036.0657870658101	5.305986472356744	839.4657703482968	1107.405638044323	-38.71120195628408	783.236682551234	1176.5094231758505	-85.55002213595242	721.3641218557791	1233.723589705714	-131.93819341318235	654.6142204770756	1294.6317132177367	-180.83254288712655	592.9589293702558	1350.1656187930234	-224.24194493200326	469.9298524530236	1442.0196348669679	-265.1382906354813	685.0377617774548	1265.8600533798094	-185.2673655960473	700.6347761388566	1233.760984912104	-263.8456267204436	705.0111348766877	1038.4920138097477	-194.77714123613617	699.4482053959707	930.3790712134597	-218.60022973337388	707.5776449854186	939.8897099551773	-232.43646493705816	703.188040745921	937.4453114193241	-239.45857569373806	699.4433590466987	932.9518439186437	-242.8949685338152	695.7332156627282	926.8180304280387	-244.51605487248472	707.0428869299101	931.153360566853	-228.92359025176572	710.9667982621652	920.2654336632316	-237.44969414515128	707.3684651351919	910.5692693802204	-241.0906955502402	701.9131566394082	906.4964374679669	-242.61869163469706	695.2270102557183	904.4442676495099	-243.38722069764415	704.734866219162	923.8400033315354	-224.56377360098827	707.315516075624	909.265047859818	-230.52231749902364	703.0638510773098	897.7522890619225	-233.88958704041997	696.3261762068835	892.3911929526691	-235.44234879015013	688.9344496765937	889.9282438122531	-236.1419309357679	703.0646584551898	918.9520567706621	-221.2814669301487	704.1047332249217	901.650143001276	-223.81746990492098	700.0618696537603	890.685614832266	-226.12365755401555	693.3838225754255	885.0205444551125	-227.287530031597	686.3488996984158	882.4707291347122	-227.78709220212812	700.5489968067686	913.6251698525014	-217.12955067265435	700.1564883891997	894.4721284188774	-216.95057736113856	696.3882220812525	884.3167386245806	-217.8052200597114	691.2604099080077	879.519290440328	-218.1742451795872	684.8808323113078	876.8776682792972	-218.34058761514828	668.6664634156846	1283.803333875601	-142.90585503114536	656.4684638222843	1277.672822842099	-53.405672939745195	721.180042715431	1078.0075737121415	-113.80670290387665	736.6764132262404	926.0844835554111	-152.87601781461018	726.6128731537849	935.728308489982	-163.39461499398718	724.1523337432146	926.2876513694297	-176.38410774726174	723.3657764791584	916.666655214702	-184.88488490197253	723.5030748017696	906.0398292726733	-191.5052816757613	728.3822001389519	926.7305010003837	-162.1487062098972	721.8745414527217	911.9205509727501	-175.41107810941884	720.7127198717717	896.0679744856409	-186.01267502228484	721.5883796734679	886.7989201305321	-192.771872351434	723.3910211449479	879.5225139382053	-198.47990470660147	731.2899692430459	918.6963099730744	-160.26971967727118	726.514439524422	899.9070122043543	-172.18870143384538	725.655660289707	881.5897164130838	-183.46792376700816	726.9083720325425	869.9179633642988	-191.48385624910844	728.9762076575189	861.718544682812	-197.66199454864602	733.480951668331	913.4315342120369	-158.58892988828978	731.0169728466294	892.1202542054648	-167.76819065370375	730.6943327078159	875.1425609917007	-177.28494929809665	732.128840493888	863.3466603169998	-184.85007277091762	734.1803061398246	855.3824009128466	-190.579994550882	736.4264909032029	907.5291075918614	-156.38454137803035	735.8816227305342	884.4511833603235	-163.3991388139304	736.2986482229614	869.3695242701712	-170.48963568977254	737.6716879960729	860.0464450082548	-175.75119939377385	739.6769760587847	852.5775560321338	-180.6793881465697
224	0.929	921.0129	906.651	56.2195	952.454634255471	872.3451801457279	-11.669685762258222	879.0759123256593	465.59181927876966	-74.23129156636934	940.6690285115569	100.35836473196538	-179.70417131586035	867.2105402488246	21.420308948102686	-21.91779168933917	896.6359879600396	912.1045158091956	135.93837371931625	841.4389121176018	510.5975265123759	240.8293315122474	768.5106158721084	80.10998657004457	292.8444707460616	645.2616751007906	-4.975561685108519	174.67500514536326	888.1690859798249	1036.0867273520225	5.304427994432917	839.6002475631069	1107.5171226584807	-38.629613666447064	783.4018860966197	1176.7137901770964	-85.37208524156313	721.5065243194679	1233.9852529404523	-131.65256612365184	654.7334478918463	1294.954413394441	-180.43168456199078	593.0635752104115	1350.5496089383776	-223.7339779450065	469.99990162898973	1442.40110221102	-264.5166216394663	685.0364222317729	1266.0836363806156	-184.88189633782127	700.0998367673001	1233.646428933519	-263.08806016968606	704.4976960842507	1039.140416180253	-193.24663363996464	698.2476864457423	931.7932642625533	-216.09195895053602	706.4285614547709	941.49584920666	-229.8719900480812	702.1248527743521	939.1259054586668	-236.78994121519332	698.431270652294	934.6815411070594	-240.1499806356278	694.7562766704984	928.5863375181608	-241.70414680277815	705.8616096620925	932.7818793972259	-226.34278205859283	709.8074072445961	922.1482336432662	-234.73296875145334	706.2548467310334	912.5511912325362	-238.2659315836588	700.8501444874489	908.4797793891062	-239.7330415294689	694.2208281021688	906.388145415336	-240.45540853500646	703.5306016758836	925.448521939027	-221.97666831771696	706.1201695170696	911.1107932723465	-227.7992263948457	701.9153779990932	899.7026376013616	-231.04819979298267	695.237281467513	894.3415375205407	-232.52731786776658	687.9070310201166	891.8345942362964	-233.1763021455707	701.8432457160994	920.5407880561171	-218.6934609445591	702.8753464894864	903.4366982184821	-221.10707915753815	698.8701959766313	892.5593256956355	-223.30995588763156	692.2479548675298	886.8921208323986	-224.4026783722157	685.2700407158325	884.2999275078811	-224.85460902343962	699.3100251440078	915.1772277325609	-214.54378068781725	698.898176491989	896.1858829485451	-214.25417766622547	695.1552457567906	886.0931428468172	-215.02630157260316	690.0657874134429	881.2906802455651	-215.34354189722984	683.7353346358964	878.6095206462285	-215.46775104015728	668.9283973435467	1284.1862401051042	-142.57109428469812	657.3539863202302	1278.7015773608061	-53.041436463481475	721.7356954573595	1078.8482367765496	-112.6564938934776	735.9841021868431	927.0894548451608	-150.71701477654992	726.2671989989526	937.4130867313396	-161.38041695558948	723.7730782176116	928.4215475979438	-174.32380764918844	722.8948870348393	919.0986717967463	-182.7838050560556	722.8973862257961	908.707841470103	-189.36279142299585	727.844417709148	928.4559429458351	-160.1358064518418	721.2296636434971	914.5593251253322	-173.5065705946803	719.8822702005175	899.1777683116146	-184.0815724714864	720.6455104018082	890.0522772803682	-190.7668779103225	722.3571084748394	882.7940278424752	-196.3750610902766	730.5649655008336	920.3423017448908	-158.2246104645698	725.5837525051174	902.4009100670189	-170.2319224779442	724.4979735579842	884.5839408442197	-181.47739185298957	725.6033056077528	873.078844468612	-189.4019017971565	727.5658031932671	864.8961049552447	-195.4696919936037	732.6270704688958	914.9998422665598	-156.51929247987988	729.868809994135	894.3861539823006	-165.75935683934796	729.323600087211	877.8292456192577	-175.24172353186353	730.602823440631	866.1859663504233	-182.716014028373	732.5490267480677	858.2335376433899	-188.34093004952132	735.4219718389174	908.9675829376433	-154.27562294197344	734.5165129210848	886.455629116479	-161.32515828185214	734.7180268596809	871.6839784267205	-168.38005758537287	735.9597631974502	862.4591910091377	-173.57148045948298	737.8614239660219	854.993289284602	-178.40440135305394
225	0.933	921.0129	906.651	56.2195	952.0906561733277	872.1962657849369	-11.763193128526916	878.7990623231923	465.393893532465	-74.1115627281987	941.0393500032491	100.33610056865847	-179.88473725567124	867.5903342642946	21.351582132180674	-22.117106481357016	896.9865953631975	912.252533082691	136.03803455404065	841.8594304829548	510.7634265554782	241.02910630916253	768.6523286182928	80.28374203430593	292.7892624522141	645.4916130807426	-4.899127478896262	174.5977946925439	888.2381958548546	1036.0958404307905	5.281801520095827	839.5876721631956	1107.4912798994865	-38.61634663856189	783.3176236863478	1176.670871910812	-85.29360879210415	721.3930710974364	1233.9964269762138	-131.46284329478132	654.5848007836971	1295.0171983146606	-180.12261129177108	592.8852252685641	1350.6603790269385	-223.3132793606031	469.78198315509167	1442.5091173419985	-263.96936451631507	684.7637978061553	1266.0401673494246	-184.5973580175281	699.3489622804923	1233.3169826661049	-262.4537386221941	703.7301037078047	1039.5839530398187	-191.83651206624543	696.8414141389417	933.0893451368875	-213.72814469812857	705.0675310882461	942.9796040536676	-227.46928038223524	700.8407465417554	940.6762934226987	-234.2881014628633	697.1911433648095	936.2744333909586	-237.57347311609166	693.5445998733242	930.211308256403	-239.0605630746387	704.4644581504817	934.2832618121096	-223.91972184168384	708.4140086843568	923.8863731671014	-232.1835467753866	704.8954048350765	914.3770044045395	-235.61021704572838	699.5365576081649	910.3025955161726	-237.0155608783669	692.9618744603617	908.1697043917438	-237.68971957643916	702.1087004262154	926.9273688912106	-219.54179241409514	704.6885306109546	912.8083990505559	-225.23471979964438	700.5175590743739	901.4920772791831	-228.3665299223829	693.8932329465588	896.1255173657242	-229.7705650108993	686.6220051731509	893.5725298475476	-230.3665252291642	700.4033732706465	921.9984724747289	-216.2535819617011	701.4100547085576	905.0744145052795	-218.54704537593275	697.4310937309344	894.2728068410182	-220.64680928671987	690.8589604509145	888.5980734628477	-221.6665793713654	683.9357145601534	885.9615042256926	-222.06840295591456	697.8523448192161	916.5973338823619	-212.10082345148342	697.4049180305576	897.750719604707	-211.69949218421135	693.677934650364	887.7111849281667	-212.38801584337824	688.6226034967088	882.8996166034746	-212.65154698830978	682.3391870078448	880.1770831308894	-212.73108184842198	668.9344622818742	1284.3232141957928	-142.32169874286714	657.9625591334152	1279.4499865586333	-52.796699017997156	722.0083177022516	1079.40151416602	-111.61913592455242	734.9904360715645	927.8023186611163	-148.65385558926374	724.9466990476815	937.7252509574299	-159.0027526349965	722.6005103931591	928.4498291461417	-171.66361992797542	721.9173771872918	918.9115286095737	-179.93561645351363	722.1612249004329	908.3259537967673	-186.36536175546067	726.8022956079585	928.6421387961581	-157.75475739053357	720.548347175139	913.986017978871	-170.69761332547807	719.5673191494161	898.213016318221	-181.00625931666397	720.5186241188583	888.992779008457	-187.56930220095668	722.3591060173003	881.7563492681026	-193.10551861869973	729.766105736546	920.5132324186321	-155.88373622688528	725.2683538033549	901.8227561712998	-167.4954042772973	724.6134165575477	883.5792575556424	-178.45695324295858	725.9605549978194	871.9601482995764	-186.23718785054766	728.0713251005076	863.8014380433859	-192.22780647626482	731.990364814124	915.1777160180698	-154.21737649336967	729.8046980725171	893.8938658471429	-163.13566686443065	729.6660140258475	876.9670276797216	-172.378066455596	731.1949415675026	865.2147502231077	-179.7171788006894	733.2883548683983	857.2853746005057	-185.27141970485368	734.9656276183804	909.1885266471228	-152.0337328903709	734.6949827739571	886.0826494179167	-158.8238431658261	735.267894561631	871.0205628157956	-165.69970770466404	736.7139631428295	861.7190799175903	-170.79887143194557	738.758799206458	854.2752047543848	-175.5728382810319
